<svg xmlns="http://www.w3.org/2000/svg" width="279" height="106" viewBox="0 0 279 106"><g fill="#006EA6"><path d="M49.79 19.81h-4.054v23.092c0 4.87 2.44 6.95 6.782 6.95h2.9v-3.876h-2.894c-1.93 0-2.735-1.235-2.735-3.015V30.2h5.627v-3.602H49.79V19.81zM41.89 40.757c0-6.355-5.223-8.072-10.12-9.187l-1.707-.37c-4.39-.962-8.19-1.768-8.19-5.035 0-4.653 4.786-5.184 6.836-5.184 4.52 0 7.147 2.18 7.587 6.252l.016.15h4.27l-.004-.176c-.247-6.4-4.507-10.057-11.696-10.057-5.724 0-11.51 2.872-11.51 9.32 0 5.748 4.808 7.274 10.164 8.444l1.054.232c4.523.96 8.796 1.875 8.796 5.742 0 4.796-4.86 5.51-7.765 5.51-2.444 0-4.656-.627-6.223-1.757-1.77-1.287-2.704-3.218-2.704-5.613v-.168H16.42v.167c0 8.267 6.752 11.23 13.072 11.23 6.178 0 12.397-2.96 12.397-9.5zM78.498 46.396c-.975 0-1.02-.53-1.02-2.362V32.39c0-4.306-2.827-6.395-8.655-6.395-3.533 0-9.495 1-9.756 7.742l-.007.178h4.045l.008-.16c.15-2.812 1.9-4.146 5.493-4.146 3.312 0 4.867 1.14 4.867 3.61 0 2.056-2.084 2.348-4.954 2.753-.82.113-1.654.234-2.54.404-3.94.758-7.8 1.935-7.8 7.134 0 4.07 2.87 6.528 7.66 6.528 3.22 0 5.84-1.14 7.84-3.302.157 2.67 1.842 3.302 3.28 3.302 1.167 0 2.043-.23 2.764-.662l.08-.05v-3.22l-.225.082c-.508.185-.843.208-1.082.208zm-5.068-4.94c0 1.91-1.84 4.94-6.76 4.94-1.26 0-4.21-.306-4.21-3.15 0-2.74 2.24-3.533 4.415-3.922.663-.112 1.375-.21 2.05-.29 1.744-.226 3.39-.444 4.505-1.1v3.522zM98.404 34.084v15.48h4.06v-15.04c0-5.694-2.61-8.45-7.965-8.45-3.265 0-5.697 1.276-7.283 3.814v-3.29h-3.83v22.965h4.06V36.62c0-4.326 2.436-6.93 6.527-6.93 2.724 0 4.43 1.7 4.43 4.394zM116.87 50.114c3.322 0 5.887-1.223 7.135-3.316v2.765h4.065V17.968h-4.065v11.426c-1.716-2.428-4.818-3.32-7.22-3.32-6.393 0-10.514 4.676-10.514 11.94 0 3.335.948 6.335 2.643 8.462 1.882 2.36 4.634 3.638 7.958 3.638zm.31-20.427c6.453 0 6.958 6.446 6.958 8.414 0 4.063-1.767 8.374-6.745 8.374-4.72 0-6.844-4.104-6.844-8.197 0-2.576.644-8.59 6.63-8.59zM142.497 36.05c-.83.116-1.66.234-2.543.405-3.936.758-7.79 1.933-7.79 7.13 0 4.07 2.852 6.53 7.65 6.53 3.22 0 5.84-1.14 7.828-3.302.157 2.67 1.84 3.3 3.28 3.3 1.182 0 2.058-.227 2.775-.66l.08-.05v-3.22l-.22.083c-.51.183-.844.206-1.08.206-.997 0-1.04-.527-1.04-2.36V32.47c0-4.31-2.825-6.397-8.633-6.397-3.55 0-9.504.998-9.768 7.742l-.007.176h4.057l.007-.158c.15-2.813 1.886-4.145 5.485-4.145 3.314 0 4.855 1.168 4.855 3.61 0 2.057-2.07 2.35-4.938 2.752zm4.906 1.953c.02-.01.042-.025 0 0zm-.013 3.53c0 1.91-1.825 4.94-6.747 4.94-1.265 0-4.197-.307-4.197-3.147 0-2.74 2.22-3.535 4.397-3.924.664-.114 1.358-.21 2.058-.29 1.744-.228 3.39-.444 4.49-1.1v3.52zM161.144 31.03v-4.432h-3.827v22.965h4.044v-10.24c0-6.11 2.573-8.983 8.025-8.983h.168v-4.262l-.16-.003c-3.793-.123-6.34 1.394-8.25 4.955zM187.85 17.968v11.426c-1.722-2.428-4.813-3.32-7.246-3.32-6.36 0-10.5 4.676-10.5 11.94 0 3.335.938 6.335 2.663 8.462 1.88 2.36 4.62 3.638 7.945 3.638 3.33 0 5.892-1.23 7.138-3.317v2.766h4.07V17.968h-4.07zm-6.604 28.506c-4.736 0-6.848-4.104-6.848-8.197 0-2.576.645-8.59 6.633-8.59 6.443 0 6.946 6.446 6.946 8.414 0 4.063-1.768 8.374-6.73 8.374zM24.782 81.635c-.416 5.457-3.797 8.867-8.84 8.867-3.48 0-6.177-1.27-7.993-3.815-1.623-2.232-2.492-5.38-2.492-9.122 0-3.408.893-6.476 2.482-8.677 1.822-2.492 4.58-3.8 7.958-3.8 4.574 0 7.772 2.43 8.58 6.526l.026.135H29l-.028-.19c-.458-3.235-1.987-5.885-4.414-7.693-2.286-1.707-5.27-2.612-8.615-2.612-4.612 0-8.466 1.686-11.152 4.88C2.334 69.074.967 73.262.967 77.87c0 10.152 5.608 16.462 14.627 16.462 3.877 0 7.176-1.168 9.538-3.373 2.322-2.176 3.757-5.406 4.148-9.294l.017-.183h-4.5l-.013.152zM44.313 70.104c-2.41 0-5.617.91-7.067 3.48V61.967h-4.06v31.648h4.06v-12.97c0-4.348 2.453-6.93 6.527-6.93 2.74 0 4.432 1.677 4.432 4.375v15.525h4.06V78.52c0-5.662-2.596-8.416-7.953-8.416zM76.14 90.502c-.967 0-1.01-.525-1.01-2.388v-11.64c0-4.286-2.837-6.37-8.667-6.37-3.533 0-9.493 1.002-9.76 7.713v.18h4.06l.003-.163c.148-2.81 1.886-4.12 5.48-4.12 3.327 0 4.865 1.14 4.865 3.592 0 2.076-2.07 2.374-4.95 2.774-.808.114-1.644.235-2.52.404-3.95.757-7.807 1.932-7.807 7.11 0 4.09 2.866 6.525 7.66 6.525 3.204 0 5.842-1.116 7.823-3.276.158 2.668 1.858 3.275 3.297 3.275 1.16 0 2.032-.204 2.75-.637l.08-.048V90.22l-.225.075c-.508.186-.84.207-1.078.207zm-5.074-4.966c0 1.915-1.824 4.966-6.74 4.966-1.275 0-4.214-.305-4.214-3.176 0-2.74 2.224-3.507 4.42-3.89.66-.118 1.354-.208 2.023-.294 1.762-.225 3.412-.443 4.51-1.103v3.496zM187.85 73.422c-1.722-2.43-4.81-3.32-7.246-3.32-6.36 0-10.5 4.677-10.5 11.94 0 3.31.938 6.33 2.66 8.463 1.882 2.36 4.622 3.61 7.948 3.61 3.327 0 5.89-1.198 7.138-3.292v2.775h4.07v-31.6h-4.07v11.424zm-6.606 17.08c-4.734 0-6.844-4.13-6.844-8.193 0-2.58.642-8.595 6.63-8.595 6.445 0 6.947 6.452 6.947 8.414 0 4.04-1.768 8.372-6.733 8.372zM119.167 70.104c-6.26 0-10.807 5.01-10.807 11.943.242 7.68 4.268 12.07 11.025 12.07 5.178 0 8.735-2.78 9.795-7.647h-4.047c-.693 2.604-2.66 4.032-5.617 4.032-2.092 0-3.846-.653-5.045-1.898-1.217-1.288-1.863-3.123-1.826-5.213h16.925l.015-.162c.16-4.084-1.095-7.957-3.356-10.31-1.806-1.87-4.173-2.814-7.06-2.814zm-6.506 9.675c.3-3.062 2.333-6.065 6.286-6.065 3.392 0 6.073 2.59 6.33 6.064H112.66zM157.046 70.104c-6.277 0-10.804 5.01-10.804 11.94.237 7.683 4.25 12.075 11.024 12.075 5.17 0 8.707-2.762 9.78-7.6h-4.036c-.705 2.58-2.695 3.982-5.618 3.982-2.09 0-3.83-.653-5.03-1.898-1.25-1.288-1.886-3.123-1.857-5.213h16.943l.01-.162c.16-4.08-1.093-7.957-3.36-10.31-1.79-1.87-4.18-2.814-7.052-2.814zm-6.525 9.675c.302-3.062 2.364-6.065 6.304-6.065 3.382 0 6.082 2.59 6.343 6.064H150.52zM84.856 75.032V70.6h-3.84v23.015h4.058V83.352c0-6.14 2.556-8.984 8.024-8.984h.168v-4.26l-.163-.004c-3.806-.124-6.367 1.393-8.247 4.928zM137.417 75.032V70.61h-3.84v22.988h4.06V83.352c0-6.136 2.54-8.984 8.02-8.984h.17v-4.264h-.162c-3.82-.124-6.368 1.393-8.248 4.928zM100.688 63.843h-4.054v23.06c0 4.898 2.454 6.978 6.794 6.978h2.885V90.01h-2.878c-1.946 0-2.748-1.237-2.748-3.044V74.227h5.626V70.63h-5.626v-6.787z"/></g><path fill="#83B8D7" d="M230.762 102.23c-2.77 1.648-5.286 2.632-7.928 2.632-6.834 0-12.544-5.593-12.874-12.32l13.315-7.936 20.7 9.254-13.213 8.37z"/><path fill="#B3D3A2" d="M238.677 68.148l-9.886-4.353c-4.42-1.977-8.59-3.62-8.59-8.483 0-2.52.766-3.842 1.972-5.157l20.917 9.22-5.19 2.993c-1.426.877-2.415 1.648-2.415 2.75 0 1.19 1.36 2.2 3.192 3.03"/><path fill="#83B8D7" d="M248.39 22.514l-10.138 6.152c-.9.542-2.103 1.42-2.103 2.77 0 1.536 2.338 2.712 4.418 3.702l-12.684-5.596c-3.74-1.646-7.466-3.514-7.466-8.018 0-1.894.546-3.43 1.426-4.74L249.266.023c3.288 1.864 6.475 5.632 6.475 10.684 0 5.412-2.74 9.033-7.35 11.806"/><path fill="#B3D3A2" d="M269.957 42.33l-2.52 1.426-20.948-9.247 24.35-14.658c3.288 1.897 6.508 5.625 6.508 10.678 0 5.408-2.665 9.138-7.39 11.8"/><path fill="#83B8D7" d="M252.275 60.115l12.392 5.446c4.642 2.078 6.067 4.52 6.067 7.602 0 1.752-.988 3.51-2.412 4.724l-20.836-9.257 3.525-1.978c2.983-1.644 3.97-2.636 3.97-3.73 0-1.142-.694-1.895-2.705-2.807"/><path fill="#26A135" d="M274.357 105.85c-5.273-4.06-10.894-6.803-17.73-9.906l-31.598-13.977c-7.937-3.538-13.202-8.255-13.202-16.193 0-7.715 3.735-11.45 8.59-14.518l1.754-1.1c-1.208 1.314-1.973 2.634-1.973 5.156 0 4.862 4.17 6.51 8.59 8.483l36.758 16.2c6.394 2.746 12.244 7.466 12.244 15.507 0 4.423-1.68 8.376-3.435 10.35"/><path fill="#006EA6" d="M270.626 76.452l-2.304 1.434c1.422-1.21 2.414-2.972 2.414-4.727 0-3.076-1.432-5.52-6.07-7.603l-39.307-17.3c-7.936-3.507-12.876-8.038-12.876-15.942 0-7.275 3.623-12.026 9.36-15.532-.878 1.31-1.428 2.847-1.428 4.74 0 4.505 3.73 6.373 7.466 8.02l38.21 16.85c6.945 3.075 12.57 7.716 12.57 16.2 0 6.613-3.094 10.784-8.036 13.86"/></svg>