<svg xmlns="http://www.w3.org/2000/svg" viewBox="0 0 297.29 127.68"><defs><style>.cls-1{fill:#f4333d;}</style></defs><title>Asset 3</title><g id="Layer_2" data-name="Layer 2"><g id="Layer_1-2" data-name="Layer 1"><path class="cls-1" d="M63.74,117.9a54.06,54.06,0,1,1,54.16-54,54.06,54.06,0,0,1-54.16,54M64,0a63.84,63.84,0,1,0,63.72,64A63.84,63.84,0,0,0,64,0"/><path class="cls-1" d="M109,60.49l-23.06,0A1.44,1.44,0,0,0,84.38,62v5.9a1.41,1.41,0,0,0,1.51,1.38l15,0c-1.94,7.27-7.44,11.38-15.26,11.37-8.79,0-15.09-7-15.07-16.78s6.35-16.74,15.13-16.72c5.22,0,8.78,1.66,12.48,5.38a1.29,1.29,0,0,0,2.06,0L104.32,48a1.49,1.49,0,0,0,0-2.06A24.65,24.65,0,0,0,85.8,38.34C71.52,38.32,61.21,49,61.18,63.83S71.42,89.39,85.57,89.42c14.41,0,24.87-10.8,24.9-25.35V62A1.44,1.44,0,0,0,109,60.49"/><path class="cls-1" d="M24.12,72.68l-4.4,4.8a1.33,1.33,0,0,0,0,1.92c5.75,6.88,12.06,9.91,20.3,9.92,11,0,18.54-5.73,18.56-14.38,0-7.28-3.82-11.68-11.78-13.89L38,58.57c-5.49-1.52-7.68-3.45-7.68-6.19,0-3.43,3.58-5.76,9.21-5.75,4.12,0,7.55,1.8,10.7,5.24a1.16,1.16,0,0,0,2.06,0l4.26-4.38a1.49,1.49,0,0,0,0-2.06c-4.11-4.68-10-7.16-17-7.17C29,38.23,21.43,44.12,21.41,52.5c0,6.31,4.65,11.54,12.47,13.75l8.23,2.35c5.21,1.52,7.27,3.31,7.26,6.33,0,3.43-3.3,5.62-8.8,5.61-6,0-10.7-2.63-14.4-7.72a1.29,1.29,0,0,0-2.06-.14"/><path d="M163,23.87c2.65,0,4.47-1.38,4.47-3.52s-1.82-3.52-4.47-3.52h-5.3v7ZM152.32,11.92h11.22c5.41,0,9.4,3.49,9.4,8.42s-4,8.42-9.4,8.42h-5.88v8.1h-5.34Z"/><path d="M187.65,31V29.21a11.87,11.87,0,0,0-4-.69c-1.93,0-3.45,1.12-3.45,2.65s1.34,2.47,3.16,2.47c2,0,4-.94,4.32-2.69m5.12-5.3V36.87h-5.12V35a7.45,7.45,0,0,1-5.52,2.32c-4,0-7.08-2.4-7.08-6s3.45-6.25,7.81-6.25a13.53,13.53,0,0,1,4.79.94v-.36c0-2-1.23-3.74-4.32-3.74a10.73,10.73,0,0,0-4.87,1.34l-1.78-3.52a17.23,17.23,0,0,1,7.84-2.07c4.9,0,8.24,3.09,8.24,8"/><path d="M195.82,34.47l2.29-3.67a10.68,10.68,0,0,0,6.28,2.11c1.42,0,2.43-.58,2.43-1.42,0-1.16-1.38-1.53-3.31-2-3.85-.94-6.83-2-6.86-5.7s2.91-6.1,7.34-6.1A13.68,13.68,0,0,1,211.39,20l-2.14,3.78A10.61,10.61,0,0,0,204,22.09c-1.31,0-2.21.47-2.21,1.13,0,1,.76,1.31,3.3,2,3.23.84,6.83,1.92,6.83,6,0,3.7-3,6.06-7.63,6.06a13.89,13.89,0,0,1-8.46-2.83"/><path d="M214,34.47l2.29-3.67a10.68,10.68,0,0,0,6.28,2.11c1.42,0,2.43-.58,2.43-1.42,0-1.16-1.38-1.53-3.3-2-3.85-.94-6.83-2-6.86-5.7s2.91-6.1,7.34-6.1A13.68,13.68,0,0,1,229.62,20l-2.14,3.78a10.62,10.62,0,0,0-5.27-1.67c-1.31,0-2.21.47-2.21,1.13,0,1,.76,1.31,3.3,2,3.23.84,6.83,1.92,6.83,6,0,3.7-3,6.06-7.63,6.06A13.89,13.89,0,0,1,214,34.47"/><path d="M233.65,18.1h5.3V36.87h-5.3Zm-.22-5.48a2.87,2.87,0,1,1,2.9,2.9,2.9,2.9,0,0,1-2.9-2.9"/><path d="M257.94,27.46a5.18,5.18,0,1,0-5.15,5.37,5.31,5.31,0,0,0,5.15-5.37m-15.43,0c0-5.34,4.69-9.8,10.28-9.8a10.11,10.11,0,0,1,10.2,9.8,10.25,10.25,0,0,1-20.48,0"/><path d="M284.4,24.92V36.87h-5.12V26c0-2.32-1.45-3.92-3.56-3.92a3.74,3.74,0,0,0-3.92,3.63l0-.11V36.87h-5.3V18.1h5.3v2.36a6.69,6.69,0,0,1,5.66-2.8c4.07,0,7,3,7,7.26"/><polygon points="152.54 52.22 157.88 52.22 165.61 66.31 173.31 52.22 178.69 52.22 178.69 77.17 173.31 77.17 173.31 61.62 165.61 75.71 157.88 61.62 157.88 77.17 152.54 77.17 152.54 52.22"/><path d="M195.17,71.25V69.5a11.87,11.87,0,0,0-4-.69c-1.93,0-3.45,1.13-3.45,2.65s1.34,2.47,3.16,2.47c2,0,4-.94,4.32-2.69m5.12-5.3V77.17h-5.12V75.28a7.45,7.45,0,0,1-5.52,2.32c-4,0-7.08-2.4-7.08-6s3.45-6.25,7.81-6.25a13.53,13.53,0,0,1,4.79.94v-.36c0-2-1.24-3.74-4.32-3.74A10.73,10.73,0,0,0,186,63.55L184.2,60A17.23,17.23,0,0,1,192,58c4.9,0,8.24,3.09,8.24,8"/><path d="M218.76,67.76c0-3.12-2-5.34-4.79-5.34s-5,2.21-5,5.34,2.07,5.37,5,5.37,4.79-2.21,4.79-5.37m5.3-16V77.17h-5.3V74.48a7.7,7.7,0,0,1-6.32,3.12c-5,0-8.64-4.07-8.64-9.84s3.63-9.8,8.64-9.8a7.7,7.7,0,0,1,6.32,3.12v-9.3Z"/><path d="M233.18,65.69h8.39a3.92,3.92,0,0,0-4-3,4.54,4.54,0,0,0-4.36,3m8.71,5.56,3.38,3.45a11.47,11.47,0,0,1-7.66,2.9,9.66,9.66,0,0,1-9.95-9.88A9.46,9.46,0,0,1,237.31,58c5.88,0,9.33,4.47,9.33,11.55H233.1a4.56,4.56,0,0,0,4.47,3.41,6.8,6.8,0,0,0,4.32-1.67"/><path d="M163,104.46c2.65,0,4.47-1.38,4.47-3.52s-1.82-3.52-4.47-3.52h-5.3v7ZM152.32,92.51h11.22c5.41,0,9.4,3.49,9.4,8.43s-4,8.42-9.4,8.42h-5.88v8.1h-5.34Z"/><path d="M190.52,108.06a5.18,5.18,0,1,0-5.15,5.37,5.31,5.31,0,0,0,5.15-5.37m-15.43,0c0-5.34,4.69-9.8,10.28-9.8a9.83,9.83,0,1,1-10.28,9.8"/><path d="M197.74,115.07,200,111.4a10.68,10.68,0,0,0,6.28,2.11c1.42,0,2.43-.58,2.43-1.42,0-1.16-1.38-1.53-3.31-2-3.85-.95-6.83-2-6.86-5.7s2.91-6.1,7.34-6.1a13.65,13.65,0,0,1,7.41,2.32l-2.14,3.78a10.61,10.61,0,0,0-5.27-1.67c-1.31,0-2.21.47-2.21,1.13,0,1,.76,1.31,3.3,2,3.23.83,6.83,1.93,6.83,6,0,3.7-3,6.06-7.63,6.06a13.89,13.89,0,0,1-8.46-2.83"/><path d="M216,115.07l2.29-3.67a10.68,10.68,0,0,0,6.28,2.11c1.42,0,2.43-.58,2.43-1.42,0-1.16-1.38-1.53-3.3-2-3.85-.95-6.83-2-6.86-5.7s2.91-6.1,7.34-6.1a13.65,13.65,0,0,1,7.41,2.32l-2.14,3.78a10.62,10.62,0,0,0-5.27-1.67c-1.31,0-2.21.47-2.21,1.13,0,1,.76,1.31,3.3,2,3.23.83,6.83,1.93,6.83,6,0,3.7-3,6.06-7.63,6.06a13.89,13.89,0,0,1-8.46-2.83"/><path d="M235.57,98.69h5.3v18.77h-5.3Zm-.22-5.48a2.87,2.87,0,1,1,2.9,2.91,2.9,2.9,0,0,1-2.9-2.91"/><path d="M260.55,108.06c0-3.12-2.07-5.34-5-5.34a4.79,4.79,0,0,0-4.76,4.61v1.45c.29,2.76,2.18,4.65,4.76,4.65,2.94,0,5-2.21,5-5.37m5.16,0c0,5.77-3.63,9.84-8.64,9.84a7.67,7.67,0,0,1-6.28-3.08v2.65h-5.3V92.08h5.3v9.22a7.73,7.73,0,0,1,6.28-3c5,0,8.64,4.07,8.64,9.8"/><rect x="269.44" y="92.08" width="5.3" height="25.38"/><path d="M283.82,106h8.39a3.92,3.92,0,0,0-4-3,4.54,4.54,0,0,0-4.36,3m8.71,5.56,3.38,3.45a11.47,11.47,0,0,1-7.66,2.9A9.66,9.66,0,0,1,278.3,108,9.46,9.46,0,0,1,288,98.25c5.88,0,9.33,4.47,9.33,11.55H283.75a4.56,4.56,0,0,0,4.47,3.41,6.8,6.8,0,0,0,4.32-1.67"/></g></g></svg>